<?xml version="1.0" encoding="UTF-8"?>
<svg version="1.1" xmlns="http://www.w3.org/2000/svg" width="326" height="80">
<path d="M0 0 C3.96 0 7.92 0 12 0 C14.10600936 3.70729751 16.20986813 7.41578757 18.3125 11.125 C18.90740234 12.17171875 19.50230469 13.2184375 20.11523438 14.296875 C20.69208984 15.31523438 21.26894531 16.33359375 21.86328125 17.3828125 C22.39219971 18.31496582 22.92111816 19.24711914 23.46606445 20.20751953 C25.05629496 23.10248316 26.54136833 26.03685571 28 29 C32.45627428 21.79025543 36.58270921 14.41127973 40.65966797 6.98291016 C41.07748535 6.22413574 41.49530273 5.46536133 41.92578125 4.68359375 C42.48906128 3.65576782 42.48906128 3.65576782 43.0637207 2.60717773 C44 1 44 1 45 0 C48.63 0 52.26 0 56 0 C56 18.48 56 36.96 56 56 C52.04 56 48.08 56 44 56 C43.67 46.43 43.34 36.86 43 27 C39.7 32.94 36.4 38.88 33 45 C29.7 45 26.4 45 23 45 C19.7 38.73 16.4 32.46 13 26 C12.67 35.9 12.34 45.8 12 56 C8.04 56 4.08 56 0 56 C0 37.52 0 19.04 0 0 Z " fill="#000000" transform="translate(125,17)"/>
<path d="M0 0 C4.83936541 2.83909438 9.45750609 6.61021529 11.08984375 12.15234375 C11.20457031 12.74144531 11.31929687 13.33054687 11.4375 13.9375 C2.11029412 17.73161765 2.11029412 17.73161765 -1.5625 16.9375 C-4.25 14.5 -4.25 14.5 -6.5625 11.9375 C-10.03393564 10.20178218 -13.76693818 10.47104207 -17.5625 10.9375 C-22.05709848 13.26803255 -25.37174334 15.90648305 -27.25 20.6875 C-28.20188991 27.54110736 -27.56270431 31.81708321 -24.5625 37.9375 C-24.2325 38.9275 -23.9025 39.9175 -23.5625 40.9375 C-18.47409941 43.41646439 -13.10526548 43.52143683 -7.5625 42.9375 C-3.70190346 41.45897367 -2.80629873 40.36624949 -0.75 36.75 C-0.358125 35.821875 0.03375 34.89375 0.4375 33.9375 C-3.8525 33.9375 -8.1425 33.9375 -12.5625 33.9375 C-12.5625 30.6375 -12.5625 27.3375 -12.5625 23.9375 C-3.6525 23.9375 5.2575 23.9375 14.4375 23.9375 C13.88414413 42.75159947 13.88414413 42.75159947 6.234375 50.03515625 C-0.67860799 55.32858819 -7.52130194 57.41891752 -16.1875 56.75 C-24.68738781 55.42049206 -30.67057493 52.29973395 -36.5625 45.9375 C-42.34647241 37.95328449 -42.25827474 29.43675785 -41.5625 19.9375 C-39.78654538 12.53447179 -36.39305585 6.57632736 -30.1015625 2.2421875 C-20.67868418 -3.1892303 -10.11781547 -4.56442803 0 0 Z " fill="#000000" transform="translate(41.5625,18.0625)"/>
<path d="M0 0 C3.08065643 3.16623022 3.92140338 6.11693172 5.25 10.3125 C1.26697965 12.1229638 -2.35356599 13.23256484 -6.75 13.3125 C-8.875 10.9375 -8.875 10.9375 -10.75 8.3125 C-13.76491986 7.18190505 -15.07162038 7.03748123 -18.0625 8.25 C-18.619375 8.600625 -19.17625 8.95125 -19.75 9.3125 C-19.75 10.9625 -19.75 12.6125 -19.75 14.3125 C-15.58924497 16.16172446 -11.43397237 17.77480377 -7.125 19.25 C1.62784987 22.45138482 1.62784987 22.45138482 4.2421875 27.0625 C6.49757047 32.17204018 6.55775831 35.90709898 5.25 41.3125 C1.96085744 47.42090761 -2.20546453 51.083148 -8.75 53.3125 C-15.28776765 54.06497849 -22.06776544 53.9176152 -27.75 50.3125 C-34.61777392 44.25732529 -34.61777392 44.25732529 -34.9375 39.5546875 C-34.875625 38.81476562 -34.81375 38.07484375 -34.75 37.3125 C-32.89375 36.8175 -32.89375 36.8175 -31 36.3125 C-30.30390625 36.126875 -29.6078125 35.94125 -28.890625 35.75 C-26.75 35.3125 -26.75 35.3125 -22.75 35.3125 C-22.523125 35.93125 -22.29625 36.55 -22.0625 37.1875 C-20.30186824 40.03804666 -18.97574851 40.50606287 -15.75 41.3125 C-12.57257395 41.4083418 -12.57257395 41.4083418 -9.75 40.3125 C-8.09977824 38.02085053 -8.09977824 38.02085053 -7.75 35.3125 C-10.6458831 30.96867535 -14.8111893 30.63678777 -19.6328125 29.3828125 C-25.43643227 27.7431281 -29.5941456 25.46528129 -33.1015625 20.3359375 C-34.87015874 14.81706491 -34.59214827 9.02798721 -32.0625 3.875 C-22.66391453 -6.53964876 -11.69643462 -7.17735761 0 0 Z " fill="#000000" transform="translate(268.75,20.6875)"/>
<path d="M0 0 C28.27027027 0 28.27027027 0 34.875 5.3125 C39.26668068 10.86668439 40.64726803 15.20618179 40.3984375 22.25 C39.59652452 27.78477196 37.31599057 31.26406557 32.86328125 34.6015625 C26.21807689 38.43245326 20.55512797 38.43925163 13 38 C13 43.94 13 49.88 13 56 C8.71 56 4.42 56 0 56 C0 37.52 0 19.04 0 0 Z M13 11 C13 16.28 13 21.56 13 27 C19.45640824 27.59081513 19.45640824 27.59081513 25.125 24.9375 C27.32506309 22.07155124 27.32506309 22.07155124 27 18.375 C26.00833493 15.02813038 25.68016223 14.02646412 23 12 C20.49796352 11.42428504 20.49796352 11.42428504 17.8125 11.3125 C15.4303125 11.1578125 15.4303125 11.1578125 13 11 Z " fill="#000000" transform="translate(190,17)"/>
<path d="M0 0 C4.29 0 8.58 0 13 0 C13 14.52 13 29.04 13 44 C20.26 44 27.52 44 35 44 C35 47.96 35 51.92 35 56 C23.45 56 11.9 56 0 56 C0 37.52 0 19.04 0 0 Z " fill="#000000" transform="translate(62,17)"/>
<path d="M0 0 C4.29 0 8.58 0 13 0 C13 18.48 13 36.96 13 56 C8.71 56 4.42 56 0 56 C0 37.52 0 19.04 0 0 Z " fill="#000000" transform="translate(103,17)"/>
<path d="M0 0 C14.85 0 29.7 0 45 0 C45 4.29 45 8.58 45 13 C30.15 13 15.3 13 0 13 C0 8.71 0 4.42 0 0 Z " fill="#000000" transform="translate(281,17)"/>
<path d="M0 0 C10.89 0 21.78 0 33 0 C33 3.96 33 7.92 33 12 C22.11 12 11.22 12 0 12 C0 8.04 0 4.08 0 0 Z " fill="#000000" transform="translate(281,39)"/>
<path d="M0 0 C6.6 0 13.2 0 20 0 C20 3.96 20 7.92 20 12 C13.4 12 6.8 12 0 12 C0 8.04 0 4.08 0 0 Z " fill="#000000" transform="translate(281,61)"/>
</svg>
