<svg xmlns="http://www.w3.org/2000/svg" fill="none" viewBox="0 0 764 118" height="23" width="125.45454545454545" class="text-[#394253]"><rect width="117.737" height="117.737" fill="url(#a)" rx="19.1609"></rect><path fill="#fff" d="M26.6094 27.8643c0-.8484.6878-1.5362 1.5362-1.5362h61.4475c.8484 0 1.5362.6878 1.5362 1.5362v12.1088c0 .8484-.6878 1.5362-1.5362 1.5362H28.1456c-.8484 0-1.5362-.6878-1.5362-1.5362V27.8643Zm0 24.6686c0-.8484.6878-1.5362 1.5362-1.5362h34.8805c.8484 0 1.5362.6878 1.5362 1.5362v12.1088c0 .8484-.6878 1.5362-1.5362 1.5362H28.1456c-.8484 0-1.5362-.6878-1.5362-1.5362V52.5329Zm0 26.5698c0-.8484.6878-1.5362 1.5362-1.5362h17.8017c.8484 0 1.5362.6878 1.5362 1.5362v12.1088c0 .8484-.6878 1.5362-1.5362 1.5362H28.1456c-.8484 0-1.5362-.6878-1.5362-1.5362V79.1027Z"></path><mask id="b" fill="#fff"><path d="M213.904 7.53307c-11.253 1.41701-21.69 6.37653-29.563 14.02093-11.068 10.7395-16.787 26.8486-15.413 43.107.52 5.6307 1.225 9.2851 2.711 13.6853 7.688 22.7097 28.895 36.0967 53.407 33.7847 22.841-2.163 38.737-16.3704 42.525-37.9612.334-1.8644.706-6.7867.817-11.4106l.223-8.0919h-46.536v17.5262h12.256c10.436 0 12.256.0746 12.256.522 0 1.156-1.894 6.4512-2.971 8.3157-5.348 9.3224-17.344 13.7599-29.898 11.0377-1.411-.2983-4.271-1.3424-6.351-2.3492-7.985-3.8782-13.37-10.9632-15.821-20.7331-1.077-4.3256-1.189-13.7972-.186-17.8245 1.672-6.6376 4.346-11.4853 8.951-16.1092 5.719-5.7053 11.402-8.0173 19.721-8.0919 6.611-.0373 11.291 1.4543 15.673 4.9223 2.674 2.1255 4.754 4.3256 6.351 6.824.854 1.3424 1.56 2.0882 1.857 1.9764.297-.1119 4.717-1.4543 9.842-3.0205 5.162-1.5662 9.508-2.9832 9.693-3.1324.149-.1864-.408-1.7153-1.299-3.4306-6.054-11.6717-17.233-19.7636-31.532-22.85863-2.711-.59663-13.89-1.04411-16.713-.7085Zm412.478.89708C610.82 10.8913 599.753 21.668 598.342 35.7262c-1.412 14.1328 6.09 24.6112 21.503 30.0555 1.746.5967 5.089 1.5662 7.428 2.1255 13.519 3.2442 16.936 4.885 18.83 9.0242.817 1.7899.929 2.4238.78 4.9222-.223 3.3934-1.04 5.2206-3.38 7.3834-3.639 3.356-8.393 4.6612-14.076 3.8781-6.425-.9323-11.699-4.9968-13.704-10.5903-.26-.7831-.669-1.3424-.891-1.2678-.186.1118-4.606 1.0441-9.731 2.1628-6.165 1.3051-9.396 2.1628-9.396 2.4611 0 1.0814 2.339 6.7867 3.788 9.2105 1.931 3.2815 6.722 8.2036 10.139 10.3666 3.38 2.163 8.096 4.176 12.256 5.221 2.897.745 4.271.857 10.214.82 6.239 0 7.242-.112 10.77-1.007 10.139-2.647 18.05-8.8 22.098-17.2278 2.154-4.4374 2.786-6.9358 3.046-12.1191.371-7.6071-1.523-13.7599-5.906-18.9432-5.162-6.1155-12.256-9.4343-28.263-13.2378-11.365-2.7222-15.227-6.0037-14.633-12.5294.409-4.5866 3.751-8.2037 8.876-9.5834 7.354-1.9391 14.856 1.5288 18.013 8.3156.669 1.4916 1.374 2.7221 1.523 2.7221.52 0 18.793-4.1018 18.941-4.2883.334-.3356-1.894-6.5257-3.305-9.0987-1.894-3.4306-6.351-8.1664-9.879-10.4784-3.12-2.0509-7.131-3.8408-11.179-4.92224-3.269-.85766-12.145-1.23056-15.822-.67121ZM282.62 109.492h61.28V90.8468h-40.482V9.9281H282.62v99.5639Zm75.767 0h20.799V9.9281h-20.799v99.5639Zm38.615 0h20.426l.075-30.9135.111-30.9505 22.581 41.3543h15.004L477.78 47.628l.112 30.9132.074 30.9508h20.427V9.9281h-19.127l-2.711 4.9222c-1.486 2.7222-8.505 15.5872-15.599 28.564-9.619 17.638-12.999 23.4552-13.259 23.0823-.186-.2983-7.205-13.126-15.599-28.5266L416.871 9.9281h-19.869v99.5639Zm119.221 0h20.799V92.8605c0-15.699.037-16.6312.668-16.3702 1.226.522 14.039.6712 17.716.1864 11.996-1.4916 22.024-7.4952 27.112-16.2583 3.231-5.5189 4.345-9.8445 4.345-16.9295 0-10.031-3.082-17.7872-9.396-23.6044-6.091-5.6681-14.113-8.7258-24.958-9.5835-2.488-.1865-11.662-.3729-20.39-.3729h-15.896v99.5639Zm37.846-80.7326c7.873 1.9018 12.107 7.9427 11.439 16.3329-.52 7.0851-4.717 11.8209-11.996 13.5362-2.043.4848-3.789.5593-8.691.4102-3.38-.1119-6.499-.3356-6.945-.4848l-.854-.2237V27.7153l7.353.2237c4.531.1492 8.208.4475 9.694.8204Zm128.173 2.0405h81.708V10.6635h-81.708v20.1364Zm0 39.527h57.567V50.1904h-57.567v20.1365Zm0 39.5411h33.426V89.7318h-33.426v20.1362Z"></path></mask><path fill="#4823BA" d="M213.904 7.53307c-11.253 1.41701-21.69 6.37653-29.563 14.02093-11.068 10.7395-16.787 26.8486-15.413 43.107.52 5.6307 1.225 9.2851 2.711 13.6853 7.688 22.7097 28.895 36.0967 53.407 33.7847 22.841-2.163 38.737-16.3704 42.525-37.9612.334-1.8644.706-6.7867.817-11.4106l.223-8.0919h-46.536v17.5262h12.256c10.436 0 12.256.0746 12.256.522 0 1.156-1.894 6.4512-2.971 8.3157-5.348 9.3224-17.344 13.7599-29.898 11.0377-1.411-.2983-4.271-1.3424-6.351-2.3492-7.985-3.8782-13.37-10.9632-15.821-20.7331-1.077-4.3256-1.189-13.7972-.186-17.8245 1.672-6.6376 4.346-11.4853 8.951-16.1092 5.719-5.7053 11.402-8.0173 19.721-8.0919 6.611-.0373 11.291 1.4543 15.673 4.9223 2.674 2.1255 4.754 4.3256 6.351 6.824.854 1.3424 1.56 2.0882 1.857 1.9764.297-.1119 4.717-1.4543 9.842-3.0205 5.162-1.5662 9.508-2.9832 9.693-3.1324.149-.1864-.408-1.7153-1.299-3.4306-6.054-11.6717-17.233-19.7636-31.532-22.85863-2.711-.59663-13.89-1.04411-16.713-.7085Zm412.478.89708C610.82 10.8913 599.753 21.668 598.342 35.7262c-1.412 14.1328 6.09 24.6112 21.503 30.0555 1.746.5967 5.089 1.5662 7.428 2.1255 13.519 3.2442 16.936 4.885 18.83 9.0242.817 1.7899.929 2.4238.78 4.9222-.223 3.3934-1.04 5.2206-3.38 7.3834-3.639 3.356-8.393 4.6612-14.076 3.8781-6.425-.9323-11.699-4.9968-13.704-10.5903-.26-.7831-.669-1.3424-.891-1.2678-.186.1118-4.606 1.0441-9.731 2.1628-6.165 1.3051-9.396 2.1628-9.396 2.4611 0 1.0814 2.339 6.7867 3.788 9.2105 1.931 3.2815 6.722 8.2036 10.139 10.3666 3.38 2.163 8.096 4.176 12.256 5.221 2.897.745 4.271.857 10.214.82 6.239 0 7.242-.112 10.77-1.007 10.139-2.647 18.05-8.8 22.098-17.2278 2.154-4.4374 2.786-6.9358 3.046-12.1191.371-7.6071-1.523-13.7599-5.906-18.9432-5.162-6.1155-12.256-9.4343-28.263-13.2378-11.365-2.7222-15.227-6.0037-14.633-12.5294.409-4.5866 3.751-8.2037 8.876-9.5834 7.354-1.9391 14.856 1.5288 18.013 8.3156.669 1.4916 1.374 2.7221 1.523 2.7221.52 0 18.793-4.1018 18.941-4.2883.334-.3356-1.894-6.5257-3.305-9.0987-1.894-3.4306-6.351-8.1664-9.879-10.4784-3.12-2.0509-7.131-3.8408-11.179-4.92224-3.269-.85766-12.145-1.23056-15.822-.67121ZM282.62 109.492h61.28V90.8468h-40.482V9.9281H282.62v99.5639Zm75.767 0h20.799V9.9281h-20.799v99.5639Zm38.615 0h20.426l.075-30.9135.111-30.9505 22.581 41.3543h15.004L477.78 47.628l.112 30.9132.074 30.9508h20.427V9.9281h-19.127l-2.711 4.9222c-1.486 2.7222-8.505 15.5872-15.599 28.564-9.619 17.638-12.999 23.4552-13.259 23.0823-.186-.2983-7.205-13.126-15.599-28.5266L416.871 9.9281h-19.869v99.5639Zm119.221 0h20.799V92.8605c0-15.699.037-16.6312.668-16.3702 1.226.522 14.039.6712 17.716.1864 11.996-1.4916 22.024-7.4952 27.112-16.2583 3.231-5.5189 4.345-9.8445 4.345-16.9295 0-10.031-3.082-17.7872-9.396-23.6044-6.091-5.6681-14.113-8.7258-24.958-9.5835-2.488-.1865-11.662-.3729-20.39-.3729h-15.896v99.5639Zm37.846-80.7326c7.873 1.9018 12.107 7.9427 11.439 16.3329-.52 7.0851-4.717 11.8209-11.996 13.5362-2.043.4848-3.789.5593-8.691.4102-3.38-.1119-6.499-.3356-6.945-.4848l-.854-.2237V27.7153l7.353.2237c4.531.1492 8.208.4475 9.694.8204Zm128.173 2.0405h81.708V10.6635h-81.708v20.1364Zm0 39.527h57.567V50.1904h-57.567v20.1365Zm0 39.5411h33.426V89.7318h-33.426v20.1362Z"></path><path stroke="#fff" stroke-width=".556238" d="M213.904 7.53307c-11.253 1.41701-21.69 6.37653-29.563 14.02093-11.068 10.7395-16.787 26.8486-15.413 43.107.52 5.6307 1.225 9.2851 2.711 13.6853 7.688 22.7097 28.895 36.0967 53.407 33.7847 22.841-2.163 38.737-16.3704 42.525-37.9612.334-1.8644.706-6.7867.817-11.4106l.223-8.0919h-46.536v17.5262h12.256c10.436 0 12.256.0746 12.256.522 0 1.156-1.894 6.4512-2.971 8.3157-5.348 9.3224-17.344 13.7599-29.898 11.0377-1.411-.2983-4.271-1.3424-6.351-2.3492-7.985-3.8782-13.37-10.9632-15.821-20.7331-1.077-4.3256-1.189-13.7972-.186-17.8245 1.672-6.6376 4.346-11.4853 8.951-16.1092 5.719-5.7053 11.402-8.0173 19.721-8.0919 6.611-.0373 11.291 1.4543 15.673 4.9223 2.674 2.1255 4.754 4.3256 6.351 6.824.854 1.3424 1.56 2.0882 1.857 1.9764.297-.1119 4.717-1.4543 9.842-3.0205 5.162-1.5662 9.508-2.9832 9.693-3.1324.149-.1864-.408-1.7153-1.299-3.4306-6.054-11.6717-17.233-19.7636-31.532-22.85863-2.711-.59663-13.89-1.04411-16.713-.7085Zm412.478.89708C610.82 10.8913 599.753 21.668 598.342 35.7262c-1.412 14.1328 6.09 24.6112 21.503 30.0555 1.746.5967 5.089 1.5662 7.428 2.1255 13.519 3.2442 16.936 4.885 18.83 9.0242.817 1.7899.929 2.4238.78 4.9222-.223 3.3934-1.04 5.2206-3.38 7.3834-3.639 3.356-8.393 4.6612-14.076 3.8781-6.425-.9323-11.699-4.9968-13.704-10.5903-.26-.7831-.669-1.3424-.891-1.2678-.186.1118-4.606 1.0441-9.731 2.1628-6.165 1.3051-9.396 2.1628-9.396 2.4611 0 1.0814 2.339 6.7867 3.788 9.2105 1.931 3.2815 6.722 8.2036 10.139 10.3666 3.38 2.163 8.096 4.176 12.256 5.221 2.897.745 4.271.857 10.214.82 6.239 0 7.242-.112 10.77-1.007 10.139-2.647 18.05-8.8 22.098-17.2278 2.154-4.4374 2.786-6.9358 3.046-12.1191.371-7.6071-1.523-13.7599-5.906-18.9432-5.162-6.1155-12.256-9.4343-28.263-13.2378-11.365-2.7222-15.227-6.0037-14.633-12.5294.409-4.5866 3.751-8.2037 8.876-9.5834 7.354-1.9391 14.856 1.5288 18.013 8.3156.669 1.4916 1.374 2.7221 1.523 2.7221.52 0 18.793-4.1018 18.941-4.2883.334-.3356-1.894-6.5257-3.305-9.0987-1.894-3.4306-6.351-8.1664-9.879-10.4784-3.12-2.0509-7.131-3.8408-11.179-4.92224-3.269-.85766-12.145-1.23056-15.822-.67121ZM282.62 109.492h61.28V90.8468h-40.482V9.9281H282.62v99.5639Zm75.767 0h20.799V9.9281h-20.799v99.5639Zm38.615 0h20.426l.075-30.9135.111-30.9505 22.581 41.3543h15.004L477.78 47.628l.112 30.9132.074 30.9508h20.427V9.9281h-19.127l-2.711 4.9222c-1.486 2.7222-8.505 15.5872-15.599 28.564-9.619 17.638-12.999 23.4552-13.259 23.0823-.186-.2983-7.205-13.126-15.599-28.5266L416.871 9.9281h-19.869v99.5639Zm119.221 0h20.799V92.8605c0-15.699.037-16.6312.668-16.3702 1.226.522 14.039.6712 17.716.1864 11.996-1.4916 22.024-7.4952 27.112-16.2583 3.231-5.5189 4.345-9.8445 4.345-16.9295 0-10.031-3.082-17.7872-9.396-23.6044-6.091-5.6681-14.113-8.7258-24.958-9.5835-2.488-.1865-11.662-.3729-20.39-.3729h-15.896v99.5639Zm37.846-80.7326c7.873 1.9018 12.107 7.9427 11.439 16.3329-.52 7.0851-4.717 11.8209-11.996 13.5362-2.043.4848-3.789.5593-8.691.4102-3.38-.1119-6.499-.3356-6.945-.4848l-.854-.2237V27.7153l7.353.2237c4.531.1492 8.208.4475 9.694.8204Zm128.173 2.0405h81.708V10.6635h-81.708v20.1364Zm0 39.527h57.567V50.1904h-57.567v20.1365Zm0 39.5411h33.426V89.7318h-33.426v20.1362Z" mask="url(#b)"></path><defs><linearGradient id="a" x1="17.6223" x2="91.0483" y1="-.00000173" y2="117.737" gradientUnits="userSpaceOnUse"><stop stop-color="#6844D9"></stop><stop offset="1" stop-color="#401BB3"></stop></linearGradient></defs></svg>